<svg xmlns="http://www.w3.org/2000/svg" xmlns:xlink="http://www.w3.org/1999/xlink" width="500" zoomAndPan="magnify" viewBox="0 0 375 374.999991" height="500" preserveAspectRatio="xMidYMid meet" version="1.0"><defs><g/><clipPath id="60822dc681"><path d="M 94.199219 31.617188 L 270.449219 31.617188 L 270.449219 238.617188 L 94.199219 238.617188 Z M 94.199219 31.617188 " clip-rule="nonzero"/></clipPath></defs><g clip-path="url(#60822dc681)"><path fill="#784cfb" d="M 242.246094 73.65625 L 218.492188 122.914062 C 217.066406 125.878906 214.289062 127.964844 211.046875 128.515625 C 207.804688 129.066406 204.496094 128.011719 202.171875 125.683594 L 181.828125 105.339844 C 176.914062 100.425781 168.921875 100.425781 164.007812 105.339844 C 159.09375 110.253906 159.09375 118.246094 164.007812 123.160156 L 194.710938 153.863281 C 198.675781 157.828125 198.675781 164.253906 194.710938 168.21875 C 190.746094 172.183594 184.316406 172.183594 180.351562 168.21875 L 149.652344 137.519531 C 136.820312 124.6875 136.820312 103.8125 149.652344 90.984375 C 162.480469 78.15625 183.355469 78.15625 196.183594 90.984375 L 206.417969 101.21875 L 240.753906 31.675781 L 220.097656 58.695312 C 208.667969 53.285156 195.894531 50.253906 182.410156 50.253906 C 133.6875 50.253906 94.191406 89.753906 94.191406 138.472656 C 94.191406 162.535156 103.828125 184.34375 119.445312 200.257812 L 142.386719 152.691406 C 143.8125 149.730469 146.589844 147.644531 149.832031 147.09375 C 153.074219 146.542969 156.382812 147.597656 158.707031 149.925781 L 179.050781 170.269531 C 183.964844 175.179688 191.960938 175.179688 196.871094 170.269531 C 201.785156 165.355469 201.785156 157.359375 196.871094 152.449219 L 166.171875 121.746094 C 162.207031 117.78125 162.207031 111.355469 166.171875 107.390625 C 170.132812 103.425781 176.5625 103.425781 180.527344 107.390625 L 211.226562 138.089844 C 224.058594 150.921875 224.058594 171.796875 211.226562 184.625 C 198.398438 197.453125 177.527344 197.453125 164.695312 184.625 L 154.460938 174.390625 L 122.851562 238.808594 L 140.925781 216.34375 C 153.292969 222.945312 167.414062 226.691406 182.410156 226.691406 C 231.128906 226.691406 270.625 187.191406 270.625 138.472656 C 270.625 112.84375 259.699219 89.773438 242.246094 73.65625 " fill-opacity="1" fill-rule="nonzero"/></g><g fill="#784cfb" fill-opacity="1"><g transform="translate(60.104154, 283.651408)"><g><path d="M 13.734375 0 L 9.3125 0 L 9.3125 -9.84375 L -0.03125 -25.375 L 4.890625 -25.375 L 11.46875 -13.96875 L 18.125 -25.375 L 23.015625 -25.375 L 13.734375 -9.84375 Z M 13.734375 0 "/></g></g></g><g fill="#784cfb" fill-opacity="1"><g transform="translate(83.117485, 283.651408)"><g><path d="M 10.734375 0.359375 C 8.898438 0.359375 7.273438 -0.046875 5.859375 -0.859375 C 4.453125 -1.679688 3.351562 -2.820312 2.5625 -4.28125 C 1.78125 -5.75 1.390625 -7.445312 1.390625 -9.375 C 1.390625 -11.238281 1.78125 -12.890625 2.5625 -14.328125 C 3.351562 -15.765625 4.453125 -16.890625 5.859375 -17.703125 C 7.273438 -18.515625 8.898438 -18.921875 10.734375 -18.921875 C 12.578125 -18.921875 14.203125 -18.515625 15.609375 -17.703125 C 17.015625 -16.890625 18.113281 -15.765625 18.90625 -14.328125 C 19.707031 -12.890625 20.109375 -11.238281 20.109375 -9.375 C 20.109375 -7.46875 19.710938 -5.78125 18.921875 -4.3125 C 18.140625 -2.851562 17.046875 -1.707031 15.640625 -0.875 C 14.234375 -0.0507812 12.597656 0.359375 10.734375 0.359375 Z M 10.734375 -3.0625 C 11.773438 -3.0625 12.703125 -3.332031 13.515625 -3.875 C 14.328125 -4.414062 14.957031 -5.160156 15.40625 -6.109375 C 15.863281 -7.066406 16.09375 -8.15625 16.09375 -9.375 C 16.09375 -10.550781 15.863281 -11.601562 15.40625 -12.53125 C 14.957031 -13.46875 14.328125 -14.203125 13.515625 -14.734375 C 12.703125 -15.265625 11.773438 -15.53125 10.734375 -15.53125 C 9.691406 -15.53125 8.765625 -15.269531 7.953125 -14.75 C 7.148438 -14.226562 6.519531 -13.5 6.0625 -12.5625 C 5.613281 -11.632812 5.390625 -10.570312 5.390625 -9.375 C 5.390625 -8.132812 5.617188 -7.035156 6.078125 -6.078125 C 6.546875 -5.128906 7.179688 -4.390625 7.984375 -3.859375 C 8.796875 -3.328125 9.710938 -3.0625 10.734375 -3.0625 Z M 10.734375 -3.0625 "/></g></g></g><g fill="#784cfb" fill-opacity="1"><g transform="translate(104.634286, 283.651408)"><g><path d="M 8.546875 0.359375 C 5.753906 0.359375 3.859375 -0.65625 2.859375 -2.6875 C 2.566406 -3.289062 2.359375 -3.96875 2.234375 -4.71875 C 2.117188 -5.476562 2.0625 -6.476562 2.0625 -7.71875 L 2.0625 -18.59375 L 5.984375 -18.59375 L 5.984375 -7.6875 C 5.984375 -5.820312 6.304688 -4.535156 6.953125 -3.828125 C 7.484375 -3.222656 8.320312 -2.921875 9.46875 -2.921875 C 10.132812 -2.921875 10.710938 -3.023438 11.203125 -3.234375 C 11.691406 -3.453125 12.113281 -3.75 12.46875 -4.125 C 12.9375 -4.632812 13.269531 -5.320312 13.46875 -6.1875 C 13.664062 -7.050781 13.765625 -8.191406 13.765625 -9.609375 L 13.765625 -18.59375 L 17.6875 -18.59375 L 17.6875 0 L 13.765625 0 L 13.765625 -2.53125 C 13.015625 -1.507812 12.226562 -0.769531 11.40625 -0.3125 C 10.582031 0.132812 9.628906 0.359375 8.546875 0.359375 Z M 8.546875 0.359375 "/></g></g></g><g fill="#784cfb" fill-opacity="1"><g transform="translate(124.45502, 283.651408)"><g><path d="M 6.078125 0 L 2.15625 0 L 2.15625 -18.59375 L 6.078125 -18.59375 L 6.078125 -16.265625 C 6.859375 -17.253906 7.6875 -17.941406 8.5625 -18.328125 C 9.4375 -18.722656 10.453125 -18.921875 11.609375 -18.921875 L 12.03125 -18.921875 L 12.03125 -15.09375 L 11.03125 -15.09375 C 9.550781 -15.09375 8.410156 -14.695312 7.609375 -13.90625 C 6.585938 -12.945312 6.078125 -11.304688 6.078125 -8.984375 Z M 6.078125 0 "/></g></g></g><g fill="#784cfb" fill-opacity="1"><g transform="translate(137.158915, 283.651408)"><g/></g></g><g fill="#784cfb" fill-opacity="1"><g transform="translate(146.204622, 283.651408)"><g><path d="M 13.96875 0 L 9.3125 0 L 0.234375 -25.375 L 4.625 -25.375 L 11.640625 -4.5625 L 18.65625 -25.375 L 23.046875 -25.375 Z M 13.96875 0 "/></g></g></g><g fill="#784cfb" fill-opacity="1"><g transform="translate(169.484009, 283.651408)"><g><path d="M 4.125 -20.984375 C 3.4375 -20.984375 2.835938 -21.207031 2.328125 -21.65625 C 1.816406 -22.113281 1.5625 -22.6875 1.5625 -23.375 C 1.5625 -24.082031 1.816406 -24.65625 2.328125 -25.09375 C 2.835938 -25.539062 3.4375 -25.765625 4.125 -25.765625 C 4.832031 -25.765625 5.4375 -25.539062 5.9375 -25.09375 C 6.4375 -24.65625 6.6875 -24.082031 6.6875 -23.375 C 6.6875 -22.6875 6.4375 -22.113281 5.9375 -21.65625 C 5.4375 -21.207031 4.832031 -20.984375 4.125 -20.984375 Z M 6.078125 0 L 2.15625 0 L 2.15625 -18.59375 L 6.078125 -18.59375 Z M 6.078125 0 "/></g></g></g><g fill="#784cfb" fill-opacity="1"><g transform="translate(177.698311, 283.651408)"><g><path d="M 9.96875 0.359375 C 8.507812 0.359375 7.148438 0.125 5.890625 -0.34375 C 4.640625 -0.820312 3.601562 -1.535156 2.78125 -2.484375 C 1.96875 -3.441406 1.453125 -4.664062 1.234375 -6.15625 L 5.1875 -6.15625 C 5.457031 -5.113281 6 -4.296875 6.8125 -3.703125 C 7.632812 -3.117188 8.6875 -2.828125 9.96875 -2.828125 C 11.007812 -2.828125 11.867188 -3.03125 12.546875 -3.4375 C 13.222656 -3.851562 13.5625 -4.4375 13.5625 -5.1875 C 13.5625 -5.832031 13.34375 -6.328125 12.90625 -6.671875 C 12.476562 -7.015625 11.910156 -7.289062 11.203125 -7.5 C 10.492188 -7.707031 9.726562 -7.890625 8.90625 -8.046875 C 8.113281 -8.203125 7.3125 -8.382812 6.5 -8.59375 C 5.6875 -8.800781 4.9375 -9.09375 4.25 -9.46875 C 3.5625 -9.851562 3.015625 -10.359375 2.609375 -10.984375 C 2.203125 -11.617188 2 -12.445312 2 -13.46875 C 2 -14.707031 2.316406 -15.726562 2.953125 -16.53125 C 3.597656 -17.34375 4.457031 -17.941406 5.53125 -18.328125 C 6.613281 -18.722656 7.785156 -18.921875 9.046875 -18.921875 C 11.148438 -18.921875 12.914062 -18.378906 14.34375 -17.296875 C 15.769531 -16.222656 16.648438 -14.710938 16.984375 -12.765625 L 13.296875 -12.765625 C 13.015625 -13.804688 12.488281 -14.566406 11.71875 -15.046875 C 10.957031 -15.523438 10.066406 -15.765625 9.046875 -15.765625 C 8.046875 -15.765625 7.253906 -15.570312 6.671875 -15.1875 C 6.097656 -14.8125 5.8125 -14.304688 5.8125 -13.671875 C 5.8125 -13.109375 6.019531 -12.664062 6.4375 -12.34375 C 6.863281 -12.03125 7.414062 -11.785156 8.09375 -11.609375 C 8.769531 -11.429688 9.507812 -11.265625 10.3125 -11.109375 C 11.125 -10.953125 11.953125 -10.765625 12.796875 -10.546875 C 13.640625 -10.335938 14.410156 -10.039062 15.109375 -9.65625 C 15.804688 -9.269531 16.367188 -8.75 16.796875 -8.09375 C 17.234375 -7.4375 17.453125 -6.578125 17.453125 -5.515625 C 17.453125 -3.765625 16.796875 -2.347656 15.484375 -1.265625 C 14.179688 -0.179688 12.34375 0.359375 9.96875 0.359375 Z M 9.96875 0.359375 "/></g></g></g><g fill="#784cfb" fill-opacity="1"><g transform="translate(196.62113, 283.651408)"><g><path d="M 4.125 -20.984375 C 3.4375 -20.984375 2.835938 -21.207031 2.328125 -21.65625 C 1.816406 -22.113281 1.5625 -22.6875 1.5625 -23.375 C 1.5625 -24.082031 1.816406 -24.65625 2.328125 -25.09375 C 2.835938 -25.539062 3.4375 -25.765625 4.125 -25.765625 C 4.832031 -25.765625 5.4375 -25.539062 5.9375 -25.09375 C 6.4375 -24.65625 6.6875 -24.082031 6.6875 -23.375 C 6.6875 -22.6875 6.4375 -22.113281 5.9375 -21.65625 C 5.4375 -21.207031 4.832031 -20.984375 4.125 -20.984375 Z M 6.078125 0 L 2.15625 0 L 2.15625 -18.59375 L 6.078125 -18.59375 Z M 6.078125 0 "/></g></g></g><g fill="#784cfb" fill-opacity="1"><g transform="translate(204.835432, 283.651408)"><g><path d="M 10.734375 0.359375 C 8.898438 0.359375 7.273438 -0.046875 5.859375 -0.859375 C 4.453125 -1.679688 3.351562 -2.820312 2.5625 -4.28125 C 1.78125 -5.75 1.390625 -7.445312 1.390625 -9.375 C 1.390625 -11.238281 1.78125 -12.890625 2.5625 -14.328125 C 3.351562 -15.765625 4.453125 -16.890625 5.859375 -17.703125 C 7.273438 -18.515625 8.898438 -18.921875 10.734375 -18.921875 C 12.578125 -18.921875 14.203125 -18.515625 15.609375 -17.703125 C 17.015625 -16.890625 18.113281 -15.765625 18.90625 -14.328125 C 19.707031 -12.890625 20.109375 -11.238281 20.109375 -9.375 C 20.109375 -7.46875 19.710938 -5.78125 18.921875 -4.3125 C 18.140625 -2.851562 17.046875 -1.707031 15.640625 -0.875 C 14.234375 -0.0507812 12.597656 0.359375 10.734375 0.359375 Z M 10.734375 -3.0625 C 11.773438 -3.0625 12.703125 -3.332031 13.515625 -3.875 C 14.328125 -4.414062 14.957031 -5.160156 15.40625 -6.109375 C 15.863281 -7.066406 16.09375 -8.15625 16.09375 -9.375 C 16.09375 -10.550781 15.863281 -11.601562 15.40625 -12.53125 C 14.957031 -13.46875 14.328125 -14.203125 13.515625 -14.734375 C 12.703125 -15.265625 11.773438 -15.53125 10.734375 -15.53125 C 9.691406 -15.53125 8.765625 -15.269531 7.953125 -14.75 C 7.148438 -14.226562 6.519531 -13.5 6.0625 -12.5625 C 5.613281 -11.632812 5.390625 -10.570312 5.390625 -9.375 C 5.390625 -8.132812 5.617188 -7.035156 6.078125 -6.078125 C 6.546875 -5.128906 7.179688 -4.390625 7.984375 -3.859375 C 8.796875 -3.328125 9.710938 -3.0625 10.734375 -3.0625 Z M 10.734375 -3.0625 "/></g></g></g><g fill="#784cfb" fill-opacity="1"><g transform="translate(226.352232, 283.651408)"><g><path d="M 6.078125 0 L 2.15625 0 L 2.15625 -18.59375 L 6.078125 -18.59375 L 6.078125 -16.0625 C 6.898438 -17.164062 7.722656 -17.914062 8.546875 -18.3125 C 9.367188 -18.71875 10.273438 -18.921875 11.265625 -18.921875 C 12.890625 -18.921875 14.140625 -18.625 15.015625 -18.03125 C 15.890625 -17.445312 16.535156 -16.734375 16.953125 -15.890625 C 17.378906 -15.066406 17.625 -14.226562 17.6875 -13.375 C 17.75 -12.53125 17.78125 -11.695312 17.78125 -10.875 L 17.78125 0 L 13.828125 0 L 13.828125 -10.875 C 13.828125 -12.757812 13.519531 -14.046875 12.90625 -14.734375 C 12.375 -15.328125 11.53125 -15.625 10.375 -15.625 C 9.019531 -15.625 8.007812 -15.226562 7.34375 -14.4375 C 6.90625 -13.945312 6.582031 -13.273438 6.375 -12.421875 C 6.175781 -11.566406 6.078125 -10.40625 6.078125 -8.9375 Z M 6.078125 0 "/></g></g></g><g fill="#784cfb" fill-opacity="1"><g transform="translate(246.139722, 283.651408)"><g/></g></g><g fill="#784cfb" fill-opacity="1"><g transform="translate(255.185419, 283.651408)"><g><path d="M 13.5625 0.4375 C 11.5 0.4375 9.703125 0.0820312 8.171875 -0.625 C 6.648438 -1.34375 5.390625 -2.3125 4.390625 -3.53125 C 3.390625 -4.75 2.644531 -6.144531 2.15625 -7.71875 C 1.675781 -9.289062 1.4375 -10.953125 1.4375 -12.703125 C 1.4375 -14.453125 1.675781 -16.109375 2.15625 -17.671875 C 2.644531 -19.234375 3.390625 -20.625 4.390625 -21.84375 C 5.390625 -23.0625 6.648438 -24.019531 8.171875 -24.71875 C 9.703125 -25.414062 11.5 -25.765625 13.5625 -25.765625 C 15.625 -25.765625 17.414062 -25.414062 18.9375 -24.71875 C 20.457031 -24.019531 21.71875 -23.0625 22.71875 -21.84375 C 23.726562 -20.625 24.476562 -19.234375 24.96875 -17.671875 C 25.457031 -16.109375 25.703125 -14.453125 25.703125 -12.703125 C 25.703125 -10.953125 25.457031 -9.289062 24.96875 -7.71875 C 24.476562 -6.144531 23.726562 -4.75 22.71875 -3.53125 C 21.71875 -2.3125 20.457031 -1.34375 18.9375 -0.625 C 17.414062 0.0820312 15.625 0.4375 13.5625 0.4375 Z M 13.5625 -3.359375 C 15.25 -3.359375 16.664062 -3.753906 17.8125 -4.546875 C 18.96875 -5.347656 19.84375 -6.453125 20.4375 -7.859375 C 21.039062 -9.265625 21.34375 -10.878906 21.34375 -12.703125 C 21.34375 -14.515625 21.039062 -16.117188 20.4375 -17.515625 C 19.84375 -18.921875 18.96875 -20.019531 17.8125 -20.8125 C 16.664062 -21.613281 15.25 -22.015625 13.5625 -22.015625 C 11.90625 -22.015625 10.492188 -21.613281 9.328125 -20.8125 C 8.160156 -20.019531 7.273438 -18.921875 6.671875 -17.515625 C 6.078125 -16.117188 5.78125 -14.515625 5.78125 -12.703125 C 5.78125 -10.878906 6.078125 -9.265625 6.671875 -7.859375 C 7.273438 -6.453125 8.160156 -5.347656 9.328125 -4.546875 C 10.492188 -3.753906 11.90625 -3.359375 13.5625 -3.359375 Z M 13.5625 -3.359375 "/></g></g></g><g fill="#784cfb" fill-opacity="1"><g transform="translate(282.355785, 283.651408)"><g><path d="M 8.546875 0.359375 C 5.753906 0.359375 3.859375 -0.65625 2.859375 -2.6875 C 2.566406 -3.289062 2.359375 -3.96875 2.234375 -4.71875 C 2.117188 -5.476562 2.0625 -6.476562 2.0625 -7.71875 L 2.0625 -18.59375 L 5.984375 -18.59375 L 5.984375 -7.6875 C 5.984375 -5.820312 6.304688 -4.535156 6.953125 -3.828125 C 7.484375 -3.222656 8.320312 -2.921875 9.46875 -2.921875 C 10.132812 -2.921875 10.710938 -3.023438 11.203125 -3.234375 C 11.691406 -3.453125 12.113281 -3.75 12.46875 -4.125 C 12.9375 -4.632812 13.269531 -5.320312 13.46875 -6.1875 C 13.664062 -7.050781 13.765625 -8.191406 13.765625 -9.609375 L 13.765625 -18.59375 L 17.6875 -18.59375 L 17.6875 0 L 13.765625 0 L 13.765625 -2.53125 C 13.015625 -1.507812 12.226562 -0.769531 11.40625 -0.3125 C 10.582031 0.132812 9.628906 0.359375 8.546875 0.359375 Z M 8.546875 0.359375 "/></g></g></g><g fill="#784cfb" fill-opacity="1"><g transform="translate(302.176519, 283.651408)"><g><path d="M 6.078125 0 L 2.15625 0 L 2.15625 -18.59375 L 6.078125 -18.59375 L 6.078125 -16.265625 C 6.859375 -17.253906 7.6875 -17.941406 8.5625 -18.328125 C 9.4375 -18.722656 10.453125 -18.921875 11.609375 -18.921875 L 12.03125 -18.921875 L 12.03125 -15.09375 L 11.03125 -15.09375 C 9.550781 -15.09375 8.410156 -14.695312 7.609375 -13.90625 C 6.585938 -12.945312 6.078125 -11.304688 6.078125 -8.984375 Z M 6.078125 0 "/></g></g></g><g fill="#784cfb" fill-opacity="1"><g transform="translate(138.836559, 329.935808)"><g><path d="M 13.5 0.4375 C 11.4375 0.4375 9.644531 0.0820312 8.125 -0.625 C 6.613281 -1.34375 5.363281 -2.3125 4.375 -3.53125 C 3.382812 -4.75 2.644531 -6.148438 2.15625 -7.734375 C 1.675781 -9.316406 1.4375 -10.972656 1.4375 -12.703125 C 1.4375 -14.429688 1.675781 -16.082031 2.15625 -17.65625 C 2.644531 -19.226562 3.382812 -20.625 4.375 -21.84375 C 5.363281 -23.0625 6.613281 -24.019531 8.125 -24.71875 C 9.644531 -25.414062 11.4375 -25.765625 13.5 -25.765625 C 15.539062 -25.765625 17.304688 -25.425781 18.796875 -24.75 C 20.296875 -24.070312 21.492188 -23.128906 22.390625 -21.921875 C 23.285156 -20.710938 23.859375 -19.3125 24.109375 -17.71875 L 19.484375 -17.71875 C 19.210938 -19.09375 18.535156 -20.148438 17.453125 -20.890625 C 16.367188 -21.640625 15.03125 -22.015625 13.4375 -22.015625 C 11.769531 -22.015625 10.363281 -21.613281 9.21875 -20.8125 C 8.082031 -20.019531 7.222656 -18.921875 6.640625 -17.515625 C 6.066406 -16.117188 5.78125 -14.515625 5.78125 -12.703125 C 5.78125 -10.878906 6.066406 -9.257812 6.640625 -7.84375 C 7.222656 -6.425781 8.082031 -5.316406 9.21875 -4.515625 C 10.363281 -3.722656 11.769531 -3.328125 13.4375 -3.328125 C 15.03125 -3.328125 16.367188 -3.71875 17.453125 -4.5 C 18.535156 -5.289062 19.210938 -6.472656 19.484375 -8.046875 L 24.109375 -8.046875 C 23.734375 -5.472656 22.628906 -3.414062 20.796875 -1.875 C 18.972656 -0.332031 16.539062 0.4375 13.5 0.4375 Z M 13.5 0.4375 "/></g></g></g><g fill="#784cfb" fill-opacity="1"><g transform="translate(164.111325, 329.935808)"><g><path d="M 10.734375 0.359375 C 8.898438 0.359375 7.273438 -0.046875 5.859375 -0.859375 C 4.453125 -1.679688 3.351562 -2.820312 2.5625 -4.28125 C 1.78125 -5.75 1.390625 -7.445312 1.390625 -9.375 C 1.390625 -11.238281 1.78125 -12.890625 2.5625 -14.328125 C 3.351562 -15.765625 4.453125 -16.890625 5.859375 -17.703125 C 7.273438 -18.515625 8.898438 -18.921875 10.734375 -18.921875 C 12.578125 -18.921875 14.203125 -18.515625 15.609375 -17.703125 C 17.015625 -16.890625 18.113281 -15.765625 18.90625 -14.328125 C 19.707031 -12.890625 20.109375 -11.238281 20.109375 -9.375 C 20.109375 -7.46875 19.710938 -5.78125 18.921875 -4.3125 C 18.140625 -2.851562 17.046875 -1.707031 15.640625 -0.875 C 14.234375 -0.0507812 12.597656 0.359375 10.734375 0.359375 Z M 10.734375 -3.0625 C 11.773438 -3.0625 12.703125 -3.332031 13.515625 -3.875 C 14.328125 -4.414062 14.957031 -5.160156 15.40625 -6.109375 C 15.863281 -7.066406 16.09375 -8.15625 16.09375 -9.375 C 16.09375 -10.550781 15.863281 -11.601562 15.40625 -12.53125 C 14.957031 -13.46875 14.328125 -14.203125 13.515625 -14.734375 C 12.703125 -15.265625 11.773438 -15.53125 10.734375 -15.53125 C 9.691406 -15.53125 8.765625 -15.269531 7.953125 -14.75 C 7.148438 -14.226562 6.519531 -13.5 6.0625 -12.5625 C 5.613281 -11.632812 5.390625 -10.570312 5.390625 -9.375 C 5.390625 -8.132812 5.617188 -7.035156 6.078125 -6.078125 C 6.546875 -5.128906 7.179688 -4.390625 7.984375 -3.859375 C 8.796875 -3.328125 9.710938 -3.0625 10.734375 -3.0625 Z M 10.734375 -3.0625 "/></g></g></g><g fill="#784cfb" fill-opacity="1"><g transform="translate(185.628125, 329.935808)"><g><path d="M 9.640625 0.359375 C 8.023438 0.359375 6.601562 -0.046875 5.375 -0.859375 C 4.144531 -1.679688 3.1875 -2.816406 2.5 -4.265625 C 1.8125 -5.722656 1.46875 -7.394531 1.46875 -9.28125 C 1.46875 -11.1875 1.8125 -12.859375 2.5 -14.296875 C 3.1875 -15.734375 4.144531 -16.863281 5.375 -17.6875 C 6.601562 -18.507812 8.023438 -18.921875 9.640625 -18.921875 C 10.773438 -18.921875 11.78125 -18.71875 12.65625 -18.3125 C 13.53125 -17.914062 14.375 -17.164062 15.1875 -16.0625 L 15.1875 -25.375 L 19.125 -25.375 L 19.125 0 L 15.1875 0 L 15.1875 -2.53125 C 14.375 -1.4375 13.539062 -0.679688 12.6875 -0.265625 C 11.832031 0.148438 10.816406 0.359375 9.640625 0.359375 Z M 10.4375 -3.03125 C 11.457031 -3.03125 12.347656 -3.296875 13.109375 -3.828125 C 13.878906 -4.359375 14.484375 -5.09375 14.921875 -6.03125 C 15.367188 -6.976562 15.59375 -8.0625 15.59375 -9.28125 C 15.59375 -10.5 15.367188 -11.578125 14.921875 -12.515625 C 14.484375 -13.460938 13.878906 -14.203125 13.109375 -14.734375 C 12.347656 -15.265625 11.457031 -15.53125 10.4375 -15.53125 C 9.414062 -15.53125 8.53125 -15.257812 7.78125 -14.71875 C 7.03125 -14.175781 6.445312 -13.429688 6.03125 -12.484375 C 5.625 -11.546875 5.421875 -10.476562 5.421875 -9.28125 C 5.421875 -8.082031 5.625 -7.007812 6.03125 -6.0625 C 6.445312 -5.125 7.03125 -4.382812 7.78125 -3.84375 C 8.53125 -3.300781 9.414062 -3.03125 10.4375 -3.03125 Z M 10.4375 -3.03125 "/></g></g></g><g fill="#784cfb" fill-opacity="1"><g transform="translate(206.912135, 329.935808)"><g><path d="M 10.671875 0.359375 C 8.804688 0.359375 7.179688 -0.0507812 5.796875 -0.875 C 4.410156 -1.707031 3.328125 -2.847656 2.546875 -4.296875 C 1.773438 -5.753906 1.390625 -7.390625 1.390625 -9.203125 C 1.390625 -10.421875 1.582031 -11.609375 1.96875 -12.765625 C 2.363281 -13.921875 2.941406 -14.960938 3.703125 -15.890625 C 4.472656 -16.828125 5.425781 -17.566406 6.5625 -18.109375 C 7.707031 -18.648438 9.046875 -18.921875 10.578125 -18.921875 C 12.171875 -18.921875 13.671875 -18.582031 15.078125 -17.90625 C 16.484375 -17.226562 17.625 -16.191406 18.5 -14.796875 C 19.375 -13.398438 19.8125 -11.625 19.8125 -9.46875 L 19.8125 -8.484375 L 5.390625 -8.484375 C 5.429688 -8.128906 5.503906 -7.765625 5.609375 -7.390625 C 5.722656 -7.023438 5.859375 -6.703125 6.015625 -6.421875 C 6.460938 -5.378906 7.097656 -4.554688 7.921875 -3.953125 C 8.753906 -3.359375 9.703125 -3.0625 10.765625 -3.0625 C 11.941406 -3.0625 12.925781 -3.367188 13.71875 -3.984375 C 14.519531 -4.609375 15.085938 -5.332031 15.421875 -6.15625 L 19.484375 -6.15625 C 19.128906 -4.976562 18.566406 -3.890625 17.796875 -2.890625 C 17.035156 -1.890625 16.066406 -1.097656 14.890625 -0.515625 C 13.722656 0.0664062 12.316406 0.359375 10.671875 0.359375 Z M 5.625 -11.578125 L 15.734375 -11.578125 C 15.703125 -11.835938 15.632812 -12.125 15.53125 -12.4375 C 15.4375 -12.75 15.300781 -13.046875 15.125 -13.328125 C 14.6875 -14.128906 14.070312 -14.726562 13.28125 -15.125 C 12.5 -15.53125 11.640625 -15.734375 10.703125 -15.734375 C 8.710938 -15.734375 7.238281 -14.929688 6.28125 -13.328125 C 6.082031 -13.046875 5.929688 -12.742188 5.828125 -12.421875 C 5.734375 -12.097656 5.664062 -11.816406 5.625 -11.578125 Z M 5.625 -11.578125 "/></g></g></g><g fill="#784cfb" fill-opacity="1"><g transform="translate(228.096378, 329.935808)"><g><path d="M 4.09375 0.359375 C 3.40625 0.359375 2.816406 0.125 2.328125 -0.34375 C 1.835938 -0.820312 1.59375 -1.40625 1.59375 -2.09375 C 1.59375 -2.757812 1.835938 -3.320312 2.328125 -3.78125 C 2.816406 -4.25 3.40625 -4.484375 4.09375 -4.484375 C 4.726562 -4.484375 5.28125 -4.242188 5.75 -3.765625 C 6.21875 -3.296875 6.453125 -2.738281 6.453125 -2.09375 C 6.453125 -1.425781 6.21875 -0.847656 5.75 -0.359375 C 5.28125 0.117188 4.726562 0.359375 4.09375 0.359375 Z M 4.09375 0.359375 "/></g></g></g></svg>